<?xml version="1.0" encoding="UTF-8"?>
<svg id="Ebene_2" data-name="Ebene 2" xmlns="http://www.w3.org/2000/svg" viewBox="0 0 236.9 132.01">
  <defs>
    <style>
      .cls-1 {
        fill: #fff;
      }

      .cls-2 {
        fill: none;
        stroke: #fff;
        stroke-miterlimit: 10;
        stroke-width: 2.74px;
      }
    </style>
  </defs>
  <g id="Ebene_1-2" data-name="Ebene 1">
    <g>
      <g>
        <path class="cls-1" d="M123.69,59.56c-.84-.04-2.61-.08-4.03-.08s-3.19.04-4.03.08v-.58c1.15-.23,1.65-.42,1.65-3.49v-11.48h-2.27v-.5l2.27-2.27c0-4.45.15-6.91,1.42-8.87.92-1.42,2.65-2.34,4.34-2.34,1.54,0,2.92.61,3.69,2.69l-2.99,2.34c-.96-1.69-1.77-2.84-2.96-2.84-.81,0-1.34.69-1.34,2,0,2.46,2.61,3.03,2.61,6.41v.61h3.61v2.76h-3.61v11.48c0,3.07.5,3.26,1.65,3.49v.58Z"/>
        <path class="cls-1" d="M146.61,55.53c-1.8,2.8-4.26,4.34-7.26,4.34-4.91,0-9.33-3.53-9.33-9.37s4.64-9.44,9.06-9.44c3.76,0,7.68,1.84,7.68,7.64h-11.98v.46c0,4.95,2.65,8.22,6.37,8.22,1.77,0,3.42-.73,5.11-2.34l.35.5ZM142.04,47.47c0-3.49-1-5.37-3.07-5.37-2.23,0-3.69,2.46-4.07,5.37h7.14Z"/>
        <path class="cls-1" d="M160.16,59.56c-.84-.04-2.61-.08-4.03-.08s-3.19.04-4.03.08v-.58c1.15-.23,1.65-.42,1.65-3.49v-20.04c0-2.34-.04-3.15-1.19-3.46v-.58c2.19,0,4.3-.42,5.95-1.19v25.26c0,3.07.5,3.26,1.65,3.49v.58Z"/>
        <path class="cls-1" d="M173.75,59.56c-.85-.04-2.61-.08-4.03-.08s-3.19.04-4.03.08v-.58c1.15-.23,1.65-.42,1.65-3.49v-9.21c0-2.34-.04-3.15-1.19-3.46v-.58c2.19,0,4.3-.42,5.95-1.19v14.44c0,3.07.5,3.26,1.65,3.49v.58ZM169.72,39.6c-1.31,0-2.34-1.04-2.34-2.34,0-1.46,1.04-2.5,2.34-2.5,1.46,0,2.5,1.04,2.5,2.5,0,1.31-1.04,2.34-2.5,2.34Z"/>
        <path class="cls-1" d="M195.21,55.88c-1.57,2.42-3.76,3.99-6.83,3.99-5.11,0-9.37-3.65-9.37-9.33,0-6.3,4.91-9.48,9.21-9.48,3.95,0,6.72,1.61,7.33,5.11h-4.65c-.04-2.84-.65-4.07-2.69-4.07-2.88,0-4.45,2.84-4.45,7.37,0,5.07,2.76,7.91,6.37,7.91,1.77,0,3.34-.46,4.68-1.92l.38.42Z"/>
        <path class="cls-1" d="M217.01,55.53c-1.8,2.8-4.26,4.34-7.26,4.34-4.91,0-9.33-3.53-9.33-9.37s4.64-9.44,9.06-9.44c3.76,0,7.68,1.84,7.68,7.64h-11.98v.46c0,4.95,2.65,8.22,6.37,8.22,1.77,0,3.42-.73,5.11-2.34l.35.5ZM212.44,47.47c0-3.49-1-5.37-3.07-5.37-2.23,0-3.69,2.46-4.07,5.37h7.14Z"/>
        <path class="cls-1" d="M134.87,103.78c-.73,1.04-1.88,2-3.49,2-1.27,0-2.3-.42-2.84-1.65-1.27,1.07-2.57,1.65-4.45,1.65-4.88,0-8.75-3.61-8.75-9.21s4.15-9.44,9.33-9.44c1.5,0,2.65.38,3.53,1v-6.6c0-2.34-.04-3.15-1.19-3.46v-.58c2.19,0,4.3-.42,5.95-1.19v24.99c0,1.77.27,2.19.88,2.19.31,0,.5-.08.73-.19l.31.5ZM128.19,89.77c-.42-.81-1.54-1.46-3.22-1.46-2.96,0-4.34,2.23-4.34,8.25,0,5.07,1.65,7.75,4.61,7.75,1.15,0,2.19-.31,3.03-1.11-.04-.35-.08-.73-.08-1.19v-12.25Z"/>
        <path class="cls-1" d="M156.32,101.6c-1.8,2.8-4.26,4.34-7.26,4.34-4.91,0-9.33-3.53-9.33-9.37s4.65-9.44,9.06-9.44c3.76,0,7.68,1.84,7.68,7.64h-11.98v.46c0,4.95,2.65,8.22,6.37,8.22,1.77,0,3.42-.73,5.11-2.34l.35.5ZM151.76,93.53c0-3.49-1-5.37-3.07-5.37-2.23,0-3.69,2.46-4.07,5.37h7.14Z"/>
        <path class="cls-1" d="M173.06,92.3c-.81-2.88-2.38-4.15-4.53-4.15-1.54,0-2.53.88-2.53,2.42,0,4.34,8.64,2.53,8.64,9.41,0,2.88-2.3,5.8-6.83,5.8-1.8,0-2.8-.58-4.07-.58-.38,0-.84.04-1.3.19.23-1.27.12-4.57.46-6.1h.58c0,3.11,1.77,5.45,4.34,5.45,1.65,0,2.72-1,2.72-2.84,0-4.95-8.29-3.38-8.29-9.44,0-3.11,2.26-5.34,6.26-5.34,2,0,3.15.46,4.49.46.23,0,.46,0,.69-.04-.08.38-.12.92-.12,1.46,0,.77.04,2.07.08,3.3h-.58Z"/>
        <path class="cls-1" d="M188.41,105.63c-.85-.04-2.61-.08-4.03-.08s-3.19.04-4.03.08v-.58c1.15-.23,1.65-.42,1.65-3.49v-9.21c0-2.34-.04-3.15-1.19-3.46v-.58c2.19,0,4.3-.42,5.95-1.19v14.44c0,3.07.5,3.26,1.65,3.49v.58ZM184.38,85.66c-1.31,0-2.34-1.04-2.34-2.34,0-1.46,1.04-2.5,2.34-2.5,1.46,0,2.5,1.04,2.5,2.5,0,1.31-1.04,2.34-2.5,2.34Z"/>
        <path class="cls-1" d="M211.56,91.69c-.73-1.11-1.57-1.77-2.38-1.77-.19,0-.31.04-.46.08.81,1.04,1.31,2.27,1.31,3.72,0,4.11-3.88,6.26-8.1,6.26-.46,0-.88,0-1.3-.04-.84.27-1.34,1-1.34,2.07,0,1.19.54,2.11,3.69,2.3,3.26.19,8.33.58,8.33,4.72,0,2.69-2.61,5.14-9.33,5.14-5.49,0-9.44-1.57-9.44-4.88,0-1.54.73-3.42,4.61-4.53-1.57-.58-2.57-1.5-2.57-2.76,0-1.65,1.61-2.5,3.3-2.76-2.34-.96-4.03-2.8-4.03-5.53,0-4.11,3.88-6.6,8.1-6.6,2.19,0,4.26.69,5.8,1.92.92-1.07,1.8-1.69,2.73-1.69.77,0,1.69.38,2.69,1.19l-1.57,3.15ZM201.2,105.43c-2.61.08-3.84,1.46-3.84,3.65,0,2.88,1.88,4.19,4.61,4.19,2.5,0,4.15-1.31,4.15-4.07s-2.19-3.76-4.49-3.76h-.42ZM204.81,93.73c0-3.53-.65-5.68-2.88-5.68s-2.88,2.15-2.88,5.68.65,5.34,2.88,5.34,2.88-1.8,2.88-5.34Z"/>
        <path class="cls-1" d="M236.9,105.63c-.84-.04-2.61-.08-4.03-.08s-3.19.04-4.03.08v-.58c1.15-.23,1.65-.42,1.65-3.49v-8.18c0-3.3-1.19-4.61-3.46-4.61-1.34,0-2.57.69-3.57,1.73v11.06c0,3.07.5,3.26,1.65,3.49v.58c-.84-.04-2.61-.08-4.03-.08s-3.19.04-4.03.08v-.58c1.15-.23,1.65-.42,1.65-3.49v-9.21c0-2.34-.04-3.15-1.19-3.46v-.58c2.19,0,4.3-.42,5.95-1.19v2.19c2.07-1.73,3.99-2.19,5.72-2.19,2.65,0,6.07.77,6.07,6.26v8.18c0,3.07.5,3.26,1.65,3.49v.58Z"/>
      </g>
      <path class="cls-2" d="M89.02,87.55c0,23.8-19.62,43.09-43.82,43.09S1.37,111.35,1.37,87.55v-43.09C1.37,20.66,20.99,1.37,45.2,1.37s43.82,19.29,43.82,43.09v43.09Z"/>
      <path class="cls-1" d="M61.72,11.62c.27.03.54.07.81.1-5.22-2.59-11.11-4.06-17.34-4.06-13.04,0-24.54,6.88-30.03,14.1,2.92-1.16,7.47-3.51,10.4-4.59,12.71-4.7,22.37-6.91,36.15-5.55Z"/>
      <path class="cls-1" d="M29.75,59.57c7.73,12.04,3.46,32.33,16.46,40.36,7.78,4.8,20.16,7,31.12,7.97,1.3-1.88,2.45-3.87,3.41-5.97-9.48-1.47-18.5-5.61-26.63-14.17-8.97-9.45-7.14-23.95-15.16-34.14-8.44-10.73-21.86-4.44-32.17.03-.22.09-.43.19-.64.29v3.47c9.73-4.73,18.53-5.76,23.61,2.17Z"/>
      <path class="cls-1" d="M23.47,71.76c7.67,12.99,3.41,36.15,19.97,41.52,6.51,2.11,14.63,3.02,21.59,3.84.98.12,1.95.24,2.93.36,2.19-1.92,3.83-2.79,5.85-5.15-3.21-.36-6.62-.55-9.82-1.01-6.38-.91-15.12-2.15-20.95-4.79-14.97-6.77-9.68-30.36-17.22-43.07-4.38-7.37-11.58-6.92-19.67-2.9v8c7.07-3.45,13.34-3.56,17.33,3.2Z"/>
      <path class="cls-1" d="M40.34,121.54c3.5,1.34,7.78,2.14,12.91,2.43,3.5-.74,6.84-1.93,9.93-3.54-7.14-.55-15.84-.98-22.16-2.95-16.31-5.09-11.96-26.2-20.52-38.39-3.65-5.2-8.71-5.74-14.37-3.7v10.37c0,2.17.18,4.29.52,6.36,1.81.46,3.62,1.28,5.43,2.58,11.96,8.6,14.63,21.63,28.25,26.84Z"/>
      <path class="cls-1" d="M8.8,99.95c3.33,9.49,13.49,20.27,25.86,23.43-12.93-5.89-10.31-17.5-25.86-23.43Z"/>
      <path class="cls-1" d="M44.33,50.11c8.35,8.22,8.42,21.3,14.9,30.69,6.81,9.86,14.65,14.95,23.1,17.05.76-2.33,1.31-4.76,1.62-7.27-6.82-2.84-12.74-8.86-17.25-19.77-4.25-10.27-7.01-20.42-16.32-27.5-11.73-8.93-25.3-4.9-38.52-1.11-1.88.54-3.75,1.12-5.61,1.73-.06.92-.12,1.85-.12,2.78v3.06c1.03-.4,2.06-.79,3.09-1.16,11.76-4.23,25.07-8.39,35.1,1.48Z"/>
      <path class="cls-1" d="M51.11,38.53c10.16,6.82,14.42,16.62,18.95,27.46,3.59,8.6,6.96,14.8,14.18,18.85,0-.23.02-.46.02-.69v-17.94c-1.39-4.51-2.6-9.14-4.85-12.68-5.92-9.33-15.66-18.63-25.65-23.44-13.05-6.28-25.61-.5-38.97,3.54-2.13.64-5.04,1.58-7.15,2.29-.6,1.75-.46,1.72-.81,3.57,1.77-.56,3.55-1.1,5.35-1.6,13.55-3.8,26.63-7.61,38.93.63Z"/>
      <path class="cls-1" d="M56.12,25.1c8.74,3.09,20.85,9.98,27.88,17.27-.91-8.15-4.32-15.55-9.45-21.4-4.7-1.83-9.5-3.53-14.47-4.37-13.83-2.34-27.1,1.98-39.54,7.02-3.07,1.24-6.14,2.5-9.24,3.71-.79,1.37-1.49,2.8-2.11,4.27,2.53-.91,5.07-1.78,7.62-2.6,13.24-4.26,25.82-8.65,39.3-3.89Z"/>
    </g>
  </g>
</svg>